<mxfile host="app.diagrams.net" agent="Mozilla/5.0 (Windows NT 10.0; Win64; x64) AppleWebKit/537.36 (KHTML, like Gecko) Chrome/141.0.0.0 Safari/537.36" version="28.1.0">
  <diagram name="Page-1" id="dRmVgMgMjLN8bZ_JZZh4">
    <mxGraphModel dx="2131" dy="604" grid="1" gridSize="10" guides="1" tooltips="1" connect="1" arrows="1" fold="1" page="1" pageScale="1" pageWidth="850" pageHeight="1100" math="0" shadow="0">
      <root>
        <mxCell id="0" />
        <mxCell id="1" parent="0" />
        <mxCell id="3ms3Ked960QJJ8sIEu50-1" value="AWS Cloud" style="points=[[0,0],[0.25,0],[0.5,0],[0.75,0],[1,0],[1,0.25],[1,0.5],[1,0.75],[1,1],[0.75,1],[0.5,1],[0.25,1],[0,1],[0,0.75],[0,0.5],[0,0.25]];outlineConnect=0;gradientColor=none;html=1;whiteSpace=wrap;fontSize=12;fontStyle=0;container=1;pointerEvents=0;collapsible=0;recursiveResize=0;shape=mxgraph.aws4.group;grIcon=mxgraph.aws4.group_aws_cloud_alt;strokeColor=#232F3E;fillColor=none;verticalAlign=top;align=left;spacingLeft=30;fontColor=#232F3E;dashed=0;" vertex="1" parent="1">
          <mxGeometry x="50" y="70" width="770" height="600" as="geometry" />
        </mxCell>
        <mxCell id="3ms3Ked960QJJ8sIEu50-2" value="Region" style="points=[[0,0],[0.25,0],[0.5,0],[0.75,0],[1,0],[1,0.25],[1,0.5],[1,0.75],[1,1],[0.75,1],[0.5,1],[0.25,1],[0,1],[0,0.75],[0,0.5],[0,0.25]];outlineConnect=0;gradientColor=none;html=1;whiteSpace=wrap;fontSize=12;fontStyle=0;container=1;pointerEvents=0;collapsible=0;recursiveResize=0;shape=mxgraph.aws4.group;grIcon=mxgraph.aws4.group_region;strokeColor=#00A4A6;fillColor=none;verticalAlign=top;align=left;spacingLeft=30;fontColor=#147EBA;dashed=1;" vertex="1" parent="3ms3Ked960QJJ8sIEu50-1">
          <mxGeometry x="50" y="40" width="670" height="500" as="geometry" />
        </mxCell>
        <mxCell id="3ms3Ked960QJJ8sIEu50-3" value="VPC" style="points=[[0,0],[0.25,0],[0.5,0],[0.75,0],[1,0],[1,0.25],[1,0.5],[1,0.75],[1,1],[0.75,1],[0.5,1],[0.25,1],[0,1],[0,0.75],[0,0.5],[0,0.25]];outlineConnect=0;gradientColor=none;html=1;whiteSpace=wrap;fontSize=12;fontStyle=0;container=1;pointerEvents=0;collapsible=0;recursiveResize=0;shape=mxgraph.aws4.group;grIcon=mxgraph.aws4.group_vpc2;strokeColor=#8C4FFF;fillColor=none;verticalAlign=top;align=left;spacingLeft=30;fontColor=#AAB7B8;dashed=0;" vertex="1" parent="3ms3Ked960QJJ8sIEu50-2">
          <mxGeometry x="40" y="30" width="590" height="400" as="geometry" />
        </mxCell>
        <mxCell id="3ms3Ked960QJJ8sIEu50-6" value="Public subnet" style="points=[[0,0],[0.25,0],[0.5,0],[0.75,0],[1,0],[1,0.25],[1,0.5],[1,0.75],[1,1],[0.75,1],[0.5,1],[0.25,1],[0,1],[0,0.75],[0,0.5],[0,0.25]];outlineConnect=0;gradientColor=none;html=1;whiteSpace=wrap;fontSize=12;fontStyle=0;container=1;pointerEvents=0;collapsible=0;recursiveResize=0;shape=mxgraph.aws4.group;grIcon=mxgraph.aws4.group_security_group;grStroke=0;strokeColor=#7AA116;fillColor=#F2F6E8;verticalAlign=top;align=left;spacingLeft=30;fontColor=#248814;dashed=0;" vertex="1" parent="3ms3Ked960QJJ8sIEu50-3">
          <mxGeometry x="30" y="70" width="140" height="80" as="geometry" />
        </mxCell>
        <mxCell id="3ms3Ked960QJJ8sIEu50-5" value="Availability Zone" style="fillColor=none;strokeColor=#147EBA;dashed=1;verticalAlign=top;fontStyle=0;fontColor=#147EBA;whiteSpace=wrap;html=1;" vertex="1" parent="3ms3Ked960QJJ8sIEu50-3">
          <mxGeometry x="390" y="27.5" width="180" height="345" as="geometry" />
        </mxCell>
        <mxCell id="3ms3Ked960QJJ8sIEu50-7" value="Public subnet" style="points=[[0,0],[0.25,0],[0.5,0],[0.75,0],[1,0],[1,0.25],[1,0.5],[1,0.75],[1,1],[0.75,1],[0.5,1],[0.25,1],[0,1],[0,0.75],[0,0.5],[0,0.25]];outlineConnect=0;gradientColor=none;html=1;whiteSpace=wrap;fontSize=12;fontStyle=0;container=1;pointerEvents=0;collapsible=0;recursiveResize=0;shape=mxgraph.aws4.group;grIcon=mxgraph.aws4.group_security_group;grStroke=0;strokeColor=#7AA116;fillColor=#F2F6E8;verticalAlign=top;align=left;spacingLeft=30;fontColor=#248814;dashed=0;" vertex="1" parent="3ms3Ked960QJJ8sIEu50-3">
          <mxGeometry x="430" y="50" width="130" height="90" as="geometry" />
        </mxCell>
        <mxCell id="3ms3Ked960QJJ8sIEu50-4" value="Availability Zone" style="fillColor=none;strokeColor=#147EBA;dashed=1;verticalAlign=top;fontStyle=0;fontColor=#147EBA;whiteSpace=wrap;html=1;" vertex="1" parent="3ms3Ked960QJJ8sIEu50-3">
          <mxGeometry x="20" y="35" width="170" height="345" as="geometry" />
        </mxCell>
        <mxCell id="3ms3Ked960QJJ8sIEu50-9" style="edgeStyle=orthogonalEdgeStyle;rounded=0;orthogonalLoop=1;jettySize=auto;html=1;exitX=0.5;exitY=1;exitDx=0;exitDy=0;" edge="1" parent="3ms3Ked960QJJ8sIEu50-3" source="3ms3Ked960QJJ8sIEu50-4" target="3ms3Ked960QJJ8sIEu50-4">
          <mxGeometry relative="1" as="geometry" />
        </mxCell>
        <mxCell id="3ms3Ked960QJJ8sIEu50-11" value="Private subnet" style="points=[[0,0],[0.25,0],[0.5,0],[0.75,0],[1,0],[1,0.25],[1,0.5],[1,0.75],[1,1],[0.75,1],[0.5,1],[0.25,1],[0,1],[0,0.75],[0,0.5],[0,0.25]];outlineConnect=0;gradientColor=none;html=1;whiteSpace=wrap;fontSize=12;fontStyle=0;container=1;pointerEvents=0;collapsible=0;recursiveResize=0;shape=mxgraph.aws4.group;grIcon=mxgraph.aws4.group_security_group;grStroke=0;strokeColor=#00A4A6;fillColor=#E6F6F7;verticalAlign=top;align=left;spacingLeft=30;fontColor=#147EBA;dashed=0;" vertex="1" parent="3ms3Ked960QJJ8sIEu50-3">
          <mxGeometry x="30" y="220" width="130" height="85" as="geometry" />
        </mxCell>
        <mxCell id="3ms3Ked960QJJ8sIEu50-10" value="Private subnet" style="points=[[0,0],[0.25,0],[0.5,0],[0.75,0],[1,0],[1,0.25],[1,0.5],[1,0.75],[1,1],[0.75,1],[0.5,1],[0.25,1],[0,1],[0,0.75],[0,0.5],[0,0.25]];outlineConnect=0;gradientColor=none;html=1;whiteSpace=wrap;fontSize=12;fontStyle=0;container=1;pointerEvents=0;collapsible=0;recursiveResize=0;shape=mxgraph.aws4.group;grIcon=mxgraph.aws4.group_security_group;grStroke=0;strokeColor=#00A4A6;fillColor=#E6F6F7;verticalAlign=top;align=left;spacingLeft=30;fontColor=#147EBA;dashed=0;" vertex="1" parent="3ms3Ked960QJJ8sIEu50-3">
          <mxGeometry x="430" y="200" width="130" height="90" as="geometry" />
        </mxCell>
        <mxCell id="3ms3Ked960QJJ8sIEu50-12" value="" style="sketch=0;outlineConnect=0;fontColor=#232F3E;gradientColor=none;fillColor=#8C4FFF;strokeColor=none;dashed=0;verticalLabelPosition=bottom;verticalAlign=top;align=center;html=1;fontSize=12;fontStyle=0;aspect=fixed;pointerEvents=1;shape=mxgraph.aws4.router;" vertex="1" parent="3ms3Ked960QJJ8sIEu50-3">
          <mxGeometry x="270" y="80" width="60" height="60" as="geometry" />
        </mxCell>
        <mxCell id="3ms3Ked960QJJ8sIEu50-15" value="" style="endArrow=classic;html=1;rounded=0;exitX=-0.005;exitY=0.682;exitDx=0;exitDy=0;exitPerimeter=0;" edge="1" parent="3ms3Ked960QJJ8sIEu50-3" source="3ms3Ked960QJJ8sIEu50-7" target="3ms3Ked960QJJ8sIEu50-12">
          <mxGeometry width="50" height="50" relative="1" as="geometry">
            <mxPoint x="280" y="100" as="sourcePoint" />
            <mxPoint x="260" y="100" as="targetPoint" />
          </mxGeometry>
        </mxCell>
        <mxCell id="3ms3Ked960QJJ8sIEu50-16" value="" style="endArrow=classic;html=1;rounded=0;exitX=0.824;exitY=0.652;exitDx=0;exitDy=0;exitPerimeter=0;entryX=0.25;entryY=1;entryDx=0;entryDy=0;entryPerimeter=0;" edge="1" parent="3ms3Ked960QJJ8sIEu50-3" source="3ms3Ked960QJJ8sIEu50-4" target="3ms3Ked960QJJ8sIEu50-12">
          <mxGeometry width="50" height="50" relative="1" as="geometry">
            <mxPoint x="180" y="240" as="sourcePoint" />
            <mxPoint x="220" y="120" as="targetPoint" />
            <Array as="points">
              <mxPoint x="285" y="260" />
              <mxPoint x="285" y="200" />
            </Array>
          </mxGeometry>
        </mxCell>
        <mxCell id="3ms3Ked960QJJ8sIEu50-17" value="" style="endArrow=classic;html=1;rounded=0;" edge="1" parent="3ms3Ked960QJJ8sIEu50-3" target="3ms3Ked960QJJ8sIEu50-12">
          <mxGeometry width="50" height="50" relative="1" as="geometry">
            <mxPoint x="170" y="110" as="sourcePoint" />
            <mxPoint x="310" y="190" as="targetPoint" />
          </mxGeometry>
        </mxCell>
        <mxCell id="3ms3Ked960QJJ8sIEu50-18" value="CIDR 10.0.0.0/16" style="whiteSpace=wrap;html=1;" vertex="1" parent="3ms3Ked960QJJ8sIEu50-3">
          <mxGeometry x="70" y="10" width="100" height="15" as="geometry" />
        </mxCell>
        <mxCell id="3ms3Ked960QJJ8sIEu50-19" value="" style="endArrow=classic;html=1;rounded=0;exitX=0;exitY=0.667;exitDx=0;exitDy=0;exitPerimeter=0;" edge="1" parent="3ms3Ked960QJJ8sIEu50-3" source="3ms3Ked960QJJ8sIEu50-10" target="3ms3Ked960QJJ8sIEu50-12">
          <mxGeometry width="50" height="50" relative="1" as="geometry">
            <mxPoint x="260" y="250" as="sourcePoint" />
            <mxPoint x="310" y="200" as="targetPoint" />
            <Array as="points">
              <mxPoint x="380" y="260" />
              <mxPoint x="300" y="260" />
            </Array>
          </mxGeometry>
        </mxCell>
        <mxCell id="3ms3Ked960QJJ8sIEu50-20" value="" style="sketch=0;outlineConnect=0;fontColor=#232F3E;gradientColor=none;fillColor=#8C4FFF;strokeColor=none;dashed=0;verticalLabelPosition=bottom;verticalAlign=top;align=center;html=1;fontSize=12;fontStyle=0;aspect=fixed;pointerEvents=1;shape=mxgraph.aws4.internet_gateway;" vertex="1" parent="3ms3Ked960QJJ8sIEu50-2">
          <mxGeometry x="310" y="5" width="50" height="50" as="geometry" />
        </mxCell>
        <mxCell id="3ms3Ked960QJJ8sIEu50-21" value="" style="endArrow=classic;html=1;rounded=0;exitX=0.43;exitY=0.043;exitDx=0;exitDy=0;exitPerimeter=0;" edge="1" parent="3ms3Ked960QJJ8sIEu50-2" source="3ms3Ked960QJJ8sIEu50-12" target="3ms3Ked960QJJ8sIEu50-20">
          <mxGeometry width="50" height="50" relative="1" as="geometry">
            <mxPoint x="300" y="280" as="sourcePoint" />
            <mxPoint x="350" y="230" as="targetPoint" />
            <Array as="points">
              <mxPoint x="335" y="70" />
            </Array>
          </mxGeometry>
        </mxCell>
        <mxCell id="3ms3Ked960QJJ8sIEu50-37" value="" style="whiteSpace=wrap;html=1;" vertex="1" parent="3ms3Ked960QJJ8sIEu50-1">
          <mxGeometry x="-70" y="150" width="140" height="60" as="geometry" />
        </mxCell>
        <mxCell id="3ms3Ked960QJJ8sIEu50-36" value="10.0.0.0/16 ----&amp;gt; local" style="text;html=1;align=center;verticalAlign=middle;resizable=0;points=[];autosize=1;strokeColor=none;fillColor=none;" vertex="1" parent="3ms3Ked960QJJ8sIEu50-1">
          <mxGeometry x="-70" y="150" width="140" height="30" as="geometry" />
        </mxCell>
        <mxCell id="3ms3Ked960QJJ8sIEu50-39" value="0.0.0.0/0 -----&amp;gt; igw" style="text;html=1;align=center;verticalAlign=middle;resizable=0;points=[];autosize=1;strokeColor=none;fillColor=none;" vertex="1" parent="3ms3Ked960QJJ8sIEu50-1">
          <mxGeometry x="-60" y="180" width="120" height="30" as="geometry" />
        </mxCell>
        <mxCell id="3ms3Ked960QJJ8sIEu50-40" value="Public subnets" style="text;html=1;align=center;verticalAlign=middle;resizable=0;points=[];autosize=1;strokeColor=none;fillColor=none;" vertex="1" parent="3ms3Ked960QJJ8sIEu50-1">
          <mxGeometry x="-60" y="120" width="100" height="30" as="geometry" />
        </mxCell>
        <mxCell id="3ms3Ked960QJJ8sIEu50-41" value="" style="whiteSpace=wrap;html=1;" vertex="1" parent="3ms3Ked960QJJ8sIEu50-1">
          <mxGeometry x="-70" y="290" width="140" height="60" as="geometry" />
        </mxCell>
        <mxCell id="3ms3Ked960QJJ8sIEu50-42" value="Private subnets" style="text;html=1;align=center;verticalAlign=middle;resizable=0;points=[];autosize=1;strokeColor=none;fillColor=none;" vertex="1" parent="3ms3Ked960QJJ8sIEu50-1">
          <mxGeometry x="-60" y="260" width="110" height="30" as="geometry" />
        </mxCell>
        <mxCell id="3ms3Ked960QJJ8sIEu50-43" value="10.0.0.0/16 ------&amp;gt;local" style="text;html=1;align=center;verticalAlign=middle;resizable=0;points=[];autosize=1;strokeColor=none;fillColor=none;" vertex="1" parent="3ms3Ked960QJJ8sIEu50-1">
          <mxGeometry x="-70" y="305" width="140" height="30" as="geometry" />
        </mxCell>
        <mxCell id="3ms3Ked960QJJ8sIEu50-22" value="" style="image;aspect=fixed;perimeter=ellipsePerimeter;html=1;align=center;shadow=0;dashed=0;spacingTop=3;image=img/lib/active_directory/internet_globe.svg;" vertex="1" parent="1">
          <mxGeometry x="410" y="10" width="50" height="50" as="geometry" />
        </mxCell>
        <mxCell id="3ms3Ked960QJJ8sIEu50-24" value="" style="endArrow=classic;startArrow=classic;html=1;rounded=0;exitX=0.5;exitY=1;exitDx=0;exitDy=0;" edge="1" parent="1" source="3ms3Ked960QJJ8sIEu50-22">
          <mxGeometry width="50" height="50" relative="1" as="geometry">
            <mxPoint x="470" y="390" as="sourcePoint" />
            <mxPoint x="435" y="120" as="targetPoint" />
          </mxGeometry>
        </mxCell>
        <mxCell id="3ms3Ked960QJJ8sIEu50-25" value="" style="edgeStyle=orthogonalEdgeStyle;rounded=0;orthogonalLoop=1;jettySize=auto;html=1;" edge="1" parent="1" source="3ms3Ked960QJJ8sIEu50-20" target="3ms3Ked960QJJ8sIEu50-22">
          <mxGeometry relative="1" as="geometry" />
        </mxCell>
      </root>
    </mxGraphModel>
  </diagram>
</mxfile>
